HIERARCHY
ROOT hip
{
	OFFSET 0.000000 0.000000 0.000000 
	CHANNELS 6 Xposition Yposition Zposition Xrotation Zrotation Yrotation
	JOINT abdomen
	{
		OFFSET 0.000000 3.402643 0.000000 
		CHANNELS 3 Xrotation Zrotation Yrotation
		JOINT chest
		{
			OFFSET 0.000000 8.438565 -0.680529 
			CHANNELS 3 Xrotation Zrotation Yrotation
			JOINT neck
			{
				OFFSET 0.000000 10.207942 -0.272212 
				CHANNELS 3 Xrotation Zrotation Yrotation
				JOINT head
				{
					OFFSET 0.000000 3.130431 0.000000 
					CHANNELS 3 Xrotation Zrotation Yrotation
					End Site
					{
						OFFSET 0.000000 3.130435 0.000000 
					}
				}
			}
			JOINT lCollar
			{
				OFFSET 3.470700 6.669187 -0.816635 
				CHANNELS 3 Yrotation Zrotation Xrotation
				JOINT lShldr
				{
					OFFSET 3.198488 0.000000 0.000000 
					CHANNELS 3 Zrotation Yrotation Xrotation
					JOINT lForeArm
					{
						OFFSET 10.139888 0.000000 0.000000 
						CHANNELS 3 Yrotation Zrotation Xrotation
						JOINT lHand
						{
							OFFSET 8.370511 0.000000 0.000000 
							CHANNELS 3 Zrotation Yrotation Xrotation
							End Site
							{
								OFFSET 4.083176 0.000000 0.000000 
							}
						}
					}
				}
			}
			JOINT rCollar
			{
				OFFSET -3.470700 6.669187 -0.816635 
				CHANNELS 3 Yrotation Zrotation Xrotation
				JOINT rShldr
				{
					OFFSET -3.198488 0.000000 0.000000 
					CHANNELS 3 Zrotation Yrotation Xrotation
					JOINT rForeArm
					{
						OFFSET -10.139888 0.000000 0.000000 
						CHANNELS 3 Yrotation Zrotation Xrotation
						JOINT rHand
						{
							OFFSET -8.370511 0.000000 0.000000 
							CHANNELS 3 Zrotation Yrotation Xrotation
							End Site
							{
								OFFSET -4.083176 0.000000 0.000000 
							}
						}
					}
				}
			}
		}
	}
	JOINT lThigh
	{
		OFFSET 5.308129 -1.633274 1.361059 
		CHANNELS 3 Xrotation Zrotation Yrotation
		JOINT lShin
		{
			OFFSET -2.041588 -20.007561 0.000000 
			CHANNELS 3 Xrotation Zrotation Yrotation
			JOINT lFoot
			{
				OFFSET 0.000000 -19.190928 -1.224953 
				CHANNELS 3 Xrotation Yrotation Zrotation
				End Site
				{
					OFFSET 0.000000 -2.449906 4.627600 
				}
			}
		}
	}
	JOINT rThigh
	{
		OFFSET -5.308129 -1.633274 1.361059 
		CHANNELS 3 Xrotation Zrotation Yrotation
		JOINT rShin
		{
			OFFSET 2.041588 -20.007561 0.000000 
			CHANNELS 3 Xrotation Zrotation Yrotation
			JOINT rFoot
			{
				OFFSET 0.000000 -19.190928 -1.224953 
				CHANNELS 3 Xrotation Yrotation Zrotation
				End Site
				{
					OFFSET 0.000000 -2.449906 4.627600 
				}
			}
		}
	}
}
MOTION
Frames: 16
Frame Time: 0.016667
-0.370525 37.767662 3.068843 -2.070320 -0.107352 -26.744200 -17.569901 -0.997723 0.950098 16.660000 -0.438437 0.313065 10.862400 -7.622200 15.329000 10.199200 3.948490 7.821850 2.000000 -2.000000 0.000000 -43.777802 -29.571600 149.389008 85.391197 -0.225835 0.136321 -179.910995 -179.878998 -0.632604 -2.000000 2.000000 0.000000 68.282799 -10.169000 -157.738998 -118.046997 0.155155 0.102288 -0.085883 0.080600 -167.078003 -38.488178 9.504513 -8.337713 63.142551 1.368014 3.893376 -2.114193 -5.044255 1.902910 -6.833558 -3.852203 20.790159 64.887291 -1.688412 -3.822081 -15.684811 4.510420 1.425773 
-0.293809 37.828281 3.612919 -2.353830 -0.936709 -23.535700 -17.531900 -0.989570 0.527317 16.679701 0.097433 0.081288 12.224700 -6.839440 15.496100 10.557100 4.468970 7.906650 2.000000 -2.000000 0.000000 -39.245399 -38.475899 145.514999 70.108002 -0.261367 0.128610 -179.910004 -179.889999 4.396690 -2.000000 2.000000 0.000000 68.752602 -11.740400 -158.132996 -115.674004 0.159846 0.104664 -0.087234 0.082882 -168.024994 -38.572948 8.901594 -8.443125 61.328453 1.480776 3.839195 -2.496068 -7.543205 1.707946 -5.808429 -3.473359 19.305882 65.385254 -1.700475 -3.823124 -10.444194 7.740940 1.766731 
-0.274195 37.822742 4.243205 -2.520600 -1.668310 -19.916800 -17.650499 -1.200970 0.269438 16.513500 0.535773 -0.096462 13.506800 -5.298900 15.381000 10.918500 5.182440 7.845560 2.000000 -2.000000 0.000000 -38.175999 -45.597500 144.272003 61.113800 -0.280894 0.119759 0.075994 -0.080388 -166.990005 -2.000000 2.000000 0.000000 69.642097 -12.276200 -158.710999 -112.764000 0.165726 0.107308 -0.089398 0.096133 -169.490005 -38.371769 7.847897 -8.799076 59.751328 1.537456 3.798309 -3.650620 -6.227122 1.393511 -4.647293 -2.714730 17.878286 64.933403 -1.746197 -3.807688 -4.956697 9.972838 1.097558 
-0.254582 37.817093 4.873455 -2.736740 -2.380100 -16.282801 -17.758900 -1.415740 0.002611 16.347000 0.973928 -0.276749 14.783900 -3.757900 15.303500 11.291800 5.904170 7.785810 2.000000 -2.000000 0.000000 -36.692600 -52.690601 142.610001 52.119598 -0.298795 0.107965 0.065529 -0.058712 -158.386993 -2.000000 2.000000 0.000000 70.541298 -12.802300 -159.298004 -109.844002 0.171753 0.109658 -0.091666 0.099583 -170.964996 -38.175133 6.804870 -9.151219 58.270496 1.615031 3.743349 -4.887230 -4.880755 1.080504 -3.568964 -1.909803 16.453043 64.597122 -1.814945 -3.773146 0.546702 12.133201 0.224752 
-0.255470 37.700100 5.500550 -2.367180 -3.288210 -12.891700 -17.840099 -1.701760 0.434638 16.298599 0.633014 -0.086189 14.340200 -2.040210 14.516800 11.064000 6.411660 7.374330 2.000000 -2.000000 0.000000 -40.594200 -56.416500 149.858002 55.059101 -0.293151 0.112127 0.065399 -0.058381 -158.259995 -2.000000 2.000000 0.000000 71.939201 -12.524500 -161.220993 -108.251999 0.175087 0.110809 -0.092436 0.100713 -171.453003 -38.735729 6.102703 -10.746546 58.763103 1.546403 3.777684 -6.278662 -5.312471 0.737520 -2.949101 -0.223122 15.152533 64.195778 -1.813659 -3.756183 3.100411 13.159809 -0.336946 
-0.256360 37.583115 6.127634 -2.066110 -4.206260 -9.507000 -17.911400 -1.993410 0.879873 16.240200 0.292138 0.104903 13.872700 -0.321211 13.727900 10.826400 6.919700 6.968440 2.000000 -2.000000 0.000000 -45.808800 -59.786999 158.354996 57.998600 -0.287301 0.115994 0.065270 -0.058050 -158.132996 -2.000000 2.000000 0.000000 73.327202 -12.217400 -163.134003 -106.651001 0.178472 0.111873 179.906998 179.897995 8.049060 -39.333420 5.375068 -12.334923 59.294395 1.467820 3.794595 -7.637722 -5.706564 0.365844 -2.358531 1.474708 13.841385 63.784698 -1.837067 -3.763851 5.708249 14.202141 -0.945441 
-0.330794 37.497398 6.666239 -1.351830 -4.500710 -5.987980 -18.023399 -2.102170 2.201900 16.201200 -0.038950 0.745154 12.472900 1.888790 12.145000 10.107000 7.474830 6.128210 2.000000 -2.000000 0.000000 123.345001 -118.148003 -6.762020 63.516102 -0.275818 0.122422 0.064284 -0.055441 -157.136993 -2.000000 2.000000 0.000000 74.355103 -11.444800 -167.869003 -107.197998 0.177313 0.111521 179.906998 179.897995 7.883050 -40.394291 4.036390 -14.955937 59.356113 1.405605 3.816969 -7.776296 -7.347722 0.043089 -2.193630 2.892489 11.850468 63.137600 -1.846771 -3.721963 5.785573 13.630520 -0.905686 
-0.405228 37.411819 7.204866 -0.666433 -4.833660 -2.483100 -18.145500 -2.219550 3.530110 16.142500 -0.369993 1.376220 11.001900 4.066730 10.510200 9.386010 8.010780 5.293230 2.000000 -2.000000 0.000000 111.261002 -117.580002 9.333080 69.043503 -0.263748 0.127724 0.063334 -0.062555 -156.130997 -2.000000 2.000000 0.000000 -104.695999 -169.416000 7.424290 -107.745003 0.176157 0.111157 179.906006 179.897003 7.717030 -41.447346 2.624970 -17.512754 59.524014 1.373150 3.831587 -7.973490 -8.999174 -0.305583 -2.155156 4.341665 9.873881 62.473152 -1.840684 -3.719123 5.970179 13.058367 -0.856539 
-0.529349 37.503960 7.678205 0.519388 -4.784960 1.528280 -18.195000 -2.448520 4.727890 16.337601 -0.623306 1.920980 10.742200 6.207750 9.114800 9.149420 8.666080 4.545480 2.000000 -2.000000 0.000000 101.723000 -120.490997 22.163601 74.522003 -0.251335 0.131808 0.063533 -0.063122 -156.345993 -2.000000 2.000000 0.000000 -105.574997 -172.565002 1.455660 -109.042999 0.173426 0.110249 179.906006 179.897003 7.619370 -42.521004 0.874976 -19.186428 58.487011 1.387025 3.817289 -7.534276 -10.266724 -0.551896 -2.492105 5.466822 7.032792 61.582230 -1.858455 -3.698540 6.161044 10.275347 -0.696881 
-0.653472 37.595985 8.151564 1.695430 -4.812360 5.531230 -18.257401 -2.680660 5.918660 16.523001 -0.866988 2.463470 10.430000 8.349680 7.702910 8.892880 9.322030 3.790520 2.000000 -2.000000 0.000000 94.365997 -124.273003 32.866600 80.000504 -0.238589 0.134688 0.063734 -0.063689 -156.559998 -2.000000 2.000000 0.000000 -106.767998 -175.606003 -4.512430 -110.342003 0.170716 0.109279 179.906006 179.897003 7.521720 -43.488297 -0.878835 -20.818783 57.430580 1.393946 3.798705 -7.107297 -11.544452 -0.783242 -2.789700 6.538561 4.194398 60.553726 -1.882290 -3.664876 6.417534 7.495238 -0.550841 
-0.810085 37.819145 8.486949 3.128300 -5.236370 9.323000 -18.237900 -3.252090 6.731580 16.804701 -1.841750 2.816010 10.189100 10.126000 6.791990 8.742500 9.820820 3.318880 2.000000 -2.000000 0.000000 93.303398 -129.369003 36.671398 84.863800 -0.227089 0.136214 0.065720 -0.059195 -158.572006 -2.000000 2.000000 0.000000 70.466400 1.304980 169.173004 -111.074997 0.169198 0.108705 179.906006 179.897003 7.609610 -44.576199 -2.029418 -22.294447 55.470375 1.472801 3.730757 -5.315501 -13.109947 -0.652608 -3.486281 8.023553 1.848617 58.958473 -1.908727 -3.638575 6.326880 4.491523 -0.343740 
-0.966702 38.042309 8.822347 4.534690 -5.763280 13.107500 -18.227301 -3.820270 7.554010 17.075899 -2.807320 3.158760 9.906000 11.890800 5.868900 8.592030 10.319800 2.852680 2.000000 -2.000000 0.000000 92.828796 -134.492004 39.987400 89.727097 -0.215501 0.136760 0.067879 -0.064368 -160.574005 -2.000000 2.000000 0.000000 67.084396 6.652310 162.565002 -111.806999 0.167688 0.108112 179.906006 179.897003 7.697500 -45.669891 -3.216450 -23.747711 53.500900 1.529374 3.656396 -3.450553 -14.647209 -0.452968 -4.335745 9.482830 -0.533684 57.519146 -1.942188 -3.610003 6.208158 1.487770 -0.129957 
-1.171317 38.374470 9.012996 5.786330 -6.237840 15.794400 -18.013000 -4.319210 8.224500 17.444599 -3.724980 3.434370 8.925260 12.895600 5.198940 8.168560 10.540600 2.529010 2.000000 -2.000000 0.000000 -85.648399 -40.968399 -140.828003 91.943901 -0.209880 0.156208 0.069759 -0.068500 -162.195007 -2.000000 2.000000 0.000000 61.398899 14.234100 156.567001 -110.917999 0.169522 0.108829 179.906006 179.897003 7.345940 -46.395470 -3.706493 -24.441843 51.176441 1.645982 3.568885 -1.396664 -15.978477 0.017775 -4.970397 10.834219 -1.139197 55.430889 -2.013988 -3.529483 6.362677 -0.276843 0.065682 
-1.375929 38.706779 9.203667 7.021940 -6.775450 18.473000 -17.788200 -4.826260 8.900710 17.813200 -4.652890 3.708310 7.928090 13.883800 4.507850 7.744400 10.751400 2.211330 2.000000 -2.000000 0.000000 -84.293098 -36.418701 -141.438004 94.160698 -0.204221 0.155905 0.071768 -0.072601 -163.826004 -2.000000 2.000000 0.000000 54.677101 21.133801 149.548004 -110.029999 0.171366 0.109518 179.904999 179.895996 7.004140 -47.119110 -4.195732 -25.127424 48.744598 1.731837 3.463562 0.831098 -17.264069 0.576019 -5.660015 12.161613 -1.769038 53.391243 -2.075849 -3.438524 6.548944 -2.044135 0.255252 
-1.547807 39.112690 9.335059 8.310890 -6.803480 19.886400 -17.630501 -5.231130 9.713000 18.133600 -5.444380 4.058050 7.063660 14.050300 3.844460 7.325680 10.659500 1.873550 2.000000 -2.000000 0.000000 -82.767899 -32.809700 -143.681000 94.678299 -0.202902 0.155803 0.074128 -0.077076 -165.632996 -2.000000 2.000000 0.000000 46.345200 28.783501 142.981003 -105.820999 0.180238 0.112387 179.904007 179.895004 6.574460 -47.164040 -4.456132 -25.059521 45.870350 1.840982 3.334979 2.204372 -17.676334 0.950580 -6.246539 12.597225 -1.121216 51.436787 -2.202434 -3.361721 6.695015 -2.641886 0.427716 
-1.719684 39.518723 9.466437 9.591110 -6.876130 21.301001 -17.480600 -5.637100 10.523200 18.444500 -6.245790 4.409280 6.197760 14.214600 3.183100 6.907220 10.566900 1.537130 2.000000 -2.000000 0.000000 -81.467400 -29.161400 -145.738998 95.195900 -0.201584 0.155689 0.076628 -0.081474 -167.438995 -2.000000 2.000000 0.000000 36.328602 35.390400 134.613998 -101.621002 0.189275 0.114593 179.912994 179.904007 6.144750 -47.180656 -4.710423 -25.006298 43.004906 1.932432 3.181308 3.575858 -18.053814 1.336790 -6.812442 13.028179 -0.465487 49.365932 -2.287686 -3.272972 6.904921 -3.247232 0.601030 
